<svg width="131" height="50" viewBox="0 0 131 50" fill="none" xmlns="http://www.w3.org/2000/svg">
<path d="M62.7627 14.1211C57.0847 14.1211 52.834 18.9638 52.834 24.4291V32.7897C52.834 34.2085 54.0007 35.3583 55.4403 35.3583C56.88 35.3583 58.0467 34.2085 58.0467 32.7897V24.4291C58.0467 21.8107 59.9721 19.2919 62.7613 19.2919C65.5505 19.2919 67.476 21.8121 67.476 24.4291V32.7897C67.476 34.2085 68.6427 35.3583 70.0823 35.3583C71.522 35.3583 72.6887 34.2085 72.6887 32.7897V24.4291C72.6887 18.9651 68.438 14.1211 62.76 14.1211H62.7627Z" fill="#2E1B70"/>
<path d="M112.758 14.6758C111.669 14.6758 110.695 15.3374 110.306 16.3393L105.772 28.027L101.082 16.3138C100.686 15.3253 99.7169 14.6758 98.6389 14.6758H98.6116C96.7572 14.6758 95.4881 16.5182 96.1704 18.2167L102.019 32.7715C102.684 34.4082 103.944 35.7826 105.837 35.7826C107.73 35.7826 108.992 34.31 109.622 32.707L115.213 18.1817C115.865 16.4886 114.595 14.6758 112.758 14.6758Z" fill="#2E1B70"/>
<path d="M85.2496 14.1543C79.738 14.1543 75.2554 18.7683 75.2554 24.4945V32.7893C75.2554 34.2081 76.4221 35.3579 77.8617 35.3579H77.9286C79.3682 35.3579 80.5349 34.2081 80.5349 32.7893V24.4945C80.5349 21.6476 82.6596 19.3237 85.2496 19.3237C87.8396 19.3237 89.9983 21.6476 89.9983 24.4945V32.7893C89.9983 34.2081 91.1651 35.3579 92.6047 35.3579H92.6374C94.0771 35.3579 95.2438 34.2081 95.2438 32.7893V24.4945C95.2438 18.7683 90.7611 14.1543 85.2496 14.1543Z" fill="#2E1B70"/>
<path d="M88.0826 23.8785C88.0826 22.3459 86.8219 21.1035 85.2667 21.1035C83.7116 21.1035 82.4509 22.3459 82.4509 23.8785C82.4509 25.4111 83.7116 26.6535 85.2667 26.6535C86.8219 26.6535 88.0826 25.4111 88.0826 23.8785Z" fill="#2E1B70"/>
<path d="M121.154 20.2272C122.71 20.2272 123.971 18.9844 123.971 17.4515C123.971 15.9185 122.71 14.6758 121.154 14.6758C119.599 14.6758 118.338 15.9185 118.338 17.4515C118.338 18.9844 119.599 20.2272 121.154 20.2272Z" fill="#2E1B70"/>
<path d="M123.971 24.7405C123.971 23.2076 122.71 21.9648 121.155 21.9648C119.6 21.9648 118.339 23.2076 118.339 24.7405V32.5835C118.339 34.1164 119.6 35.3591 121.155 35.3591C122.71 35.3591 123.971 34.1164 123.971 32.5835V24.7405Z" fill="#2E1B70"/>
<path d="M17.1419 8.08488C17.4899 8.08488 17.8269 8.17767 18.1408 8.35922L18.8353 8.76132L18.8435 8.7667L18.8517 8.77208L43.93 22.8186L43.9628 22.8374C44.5823 23.1911 44.9521 23.8232 44.9507 24.5292C44.9494 25.2352 44.5796 25.8659 43.9587 26.2183L43.8986 26.2519L18.8613 40.5351L18.1339 40.9547C17.8201 41.1349 17.4858 41.2277 17.1378 41.2277C16.1826 41.2277 15.151 40.4786 15.151 39.2697V10.0429C15.151 8.83394 16.1826 8.08488 17.1378 8.08488M17.1419 6.76562C15.4089 6.76562 13.8164 8.13061 13.8164 10.0416V39.2683C13.8164 41.1793 15.4075 42.5443 17.1405 42.5443C17.6986 42.5443 18.2718 42.4031 18.8121 42.0911L19.5395 41.6715L44.5714 27.391L44.6287 27.3587C46.8407 26.1013 46.8448 22.9558 44.6355 21.6944L44.5973 21.6728L19.5122 7.62496L18.8176 7.22286C18.2772 6.90952 17.7014 6.76697 17.1405 6.76697L17.1419 6.76562Z" fill="#2E1B70"/>
<path d="M23.6346 20.0738C23.8025 20.0738 23.9662 20.1182 24.1218 20.2056L30.407 23.7263C30.8587 23.9791 30.9092 24.4027 30.9092 24.5735C30.9092 24.7443 30.8628 25.1679 30.4139 25.4248L24.1286 29.01C23.9717 29.1001 23.8052 29.1459 23.6346 29.1459C23.1556 29.1459 22.6371 28.7707 22.6371 28.1628V21.0568C22.6371 20.4503 23.1543 20.0751 23.6346 20.0738ZM23.6346 18.7559C22.416 18.7559 21.2998 19.7161 21.2998 21.0568V28.1628C21.2998 29.5036 22.4174 30.4638 23.6346 30.4638C24.0235 30.4638 24.4233 30.3656 24.7986 30.1518L31.0839 26.5665C32.6422 25.6776 32.6327 23.4573 31.0675 22.5805L24.7822 19.0598C24.4097 18.8513 24.0167 18.7559 23.6332 18.7559H23.6346Z" fill="#2E1B70"/>
<path d="M27.7188 20.0738C28.1977 20.0738 28.7149 20.449 28.7149 21.0568V28.1628C28.7149 28.7693 28.1977 29.1459 27.7174 29.1459C27.5468 29.1459 27.3803 29.1001 27.2234 29.01L20.9381 25.4248C20.4892 25.1679 20.4414 24.7443 20.4428 24.5735C20.4428 24.4027 20.4933 23.9791 20.945 23.7263L27.2302 20.2056C27.3858 20.1182 27.5496 20.0738 27.7174 20.0738M27.7188 18.7559C27.3353 18.7559 26.9423 18.8513 26.5698 19.0598L20.2845 22.5805C18.7193 23.4573 18.7098 25.6776 20.2681 26.5665L26.5534 30.1518C26.93 30.3669 27.3285 30.4638 27.7174 30.4638C28.9346 30.4638 30.0522 29.5036 30.0522 28.1628V21.0568C30.0522 19.7174 28.936 18.7559 27.7174 18.7559H27.7188Z" fill="#2E1B70"/>
<path d="M34.2114 8.08488C35.1666 8.08488 36.1982 8.83394 36.1982 10.0429V39.2697C36.1982 40.4786 35.1666 41.2277 34.2114 41.2277C33.8648 41.2277 33.5291 41.1363 33.2153 40.9547L32.4825 40.5324L7.45057 26.2506L7.39326 26.2183C6.77238 25.8659 6.40257 25.2339 6.40121 24.5292C6.39984 23.8245 6.76965 23.1911 7.38917 22.8374L7.42192 22.8186L32.5016 8.77208L32.5098 8.7667L32.518 8.76132L33.2125 8.35922C33.5264 8.17767 33.8634 8.08488 34.2114 8.08488ZM34.2114 6.76562C33.6506 6.76562 33.0761 6.90817 32.5343 7.22152L31.8398 7.62361L6.756 21.6742L6.71779 21.6957C4.50853 22.9571 4.51263 26.1026 6.72461 27.36L6.78193 27.3923L31.8138 41.6728L32.5412 42.0924C33.0802 42.4031 33.6533 42.5456 34.2128 42.5456C35.9458 42.5456 37.5369 41.1806 37.5369 39.2697V10.0429C37.5369 8.13195 35.9444 6.76697 34.2114 6.76697V6.76562Z" fill="#2E1B70"/>
<path d="M25.6762 42.2108C15.8293 42.2108 7.81787 34.3154 7.81787 24.6112C7.81787 14.9071 15.8293 7.01172 25.6762 7.01172C35.523 7.01172 43.5345 14.9071 43.5345 24.6112C43.5345 34.3154 35.523 42.2108 25.6762 42.2108ZM25.6762 9.57627C17.2635 9.57627 10.4201 16.3205 10.4201 24.6112C10.4201 32.902 17.2635 39.6462 25.6762 39.6462C34.0888 39.6462 40.9322 32.902 40.9322 24.6112C40.9322 16.3205 34.0888 9.57627 25.6762 9.57627Z" fill="#2E1B70"/>
<path d="M25.6762 42.2108C15.8293 42.2108 7.81787 34.3154 7.81787 24.6112C7.81787 14.9071 15.8293 7.01172 25.6762 7.01172C35.523 7.01172 43.5345 14.9071 43.5345 24.6112C43.5345 34.3154 35.523 42.2108 25.6762 42.2108ZM25.6762 9.57627C17.2635 9.57627 10.4201 16.3205 10.4201 24.6112C10.4201 32.902 17.2635 39.6462 25.6762 39.6462C34.0888 39.6462 40.9322 32.902 40.9322 24.6112C40.9322 16.3205 34.0888 9.57627 25.6762 9.57627Z" fill="#2E1B70"/>
</svg>
